<mxfile host="app.diagrams.net" modified="2023-08-18T17:50:27.198Z" agent="Mozilla/5.0 (Windows NT 10.0; Win64; x64; rv:109.0) Gecko/20100101 Firefox/116.0" etag="4kziim52GkyT0PsYkLvO" version="21.6.8" type="device">
  <diagram name="Página-1" id="sEJRtyDZ4oED9iCkOCiE">
    <mxGraphModel dx="1050" dy="538" grid="1" gridSize="10" guides="1" tooltips="1" connect="1" arrows="1" fold="1" page="1" pageScale="1" pageWidth="827" pageHeight="1169" math="0" shadow="0">
      <root>
        <mxCell id="0" />
        <mxCell id="1" parent="0" />
        <mxCell id="rChRKLVU7_Ke1O7BkCkv-1" value="bibliotecárioi" style="shape=umlActor;verticalLabelPosition=bottom;verticalAlign=top;html=1;outlineConnect=0;" vertex="1" parent="1">
          <mxGeometry x="70" y="70" width="50" height="90" as="geometry" />
        </mxCell>
        <mxCell id="rChRKLVU7_Ke1O7BkCkv-2" value="Revisar resenhas" style="ellipse;whiteSpace=wrap;html=1;" vertex="1" parent="1">
          <mxGeometry x="175" width="140" height="90" as="geometry" />
        </mxCell>
        <mxCell id="rChRKLVU7_Ke1O7BkCkv-3" value="" style="endArrow=classic;html=1;rounded=0;exitX=0.5;exitY=0.5;exitDx=0;exitDy=0;exitPerimeter=0;" edge="1" parent="1" source="rChRKLVU7_Ke1O7BkCkv-1" target="rChRKLVU7_Ke1O7BkCkv-2">
          <mxGeometry width="50" height="50" relative="1" as="geometry">
            <mxPoint x="140" y="140" as="sourcePoint" />
            <mxPoint x="230" y="110" as="targetPoint" />
          </mxGeometry>
        </mxCell>
        <mxCell id="rChRKLVU7_Ke1O7BkCkv-4" value="&lt;font style=&quot;font-size: 14px;&quot;&gt;Cadastrar leitores&lt;br&gt;&lt;/font&gt;" style="ellipse;whiteSpace=wrap;html=1;" vertex="1" parent="1">
          <mxGeometry x="325" y="90" width="140" height="90" as="geometry" />
        </mxCell>
        <mxCell id="rChRKLVU7_Ke1O7BkCkv-5" value="" style="endArrow=classic;html=1;rounded=0;exitX=0.5;exitY=0.5;exitDx=0;exitDy=0;exitPerimeter=0;entryX=0;entryY=0.5;entryDx=0;entryDy=0;" edge="1" parent="1" source="rChRKLVU7_Ke1O7BkCkv-1" target="rChRKLVU7_Ke1O7BkCkv-4">
          <mxGeometry width="50" height="50" relative="1" as="geometry">
            <mxPoint x="110" y="170" as="sourcePoint" />
            <mxPoint x="220" y="185" as="targetPoint" />
          </mxGeometry>
        </mxCell>
        <mxCell id="rChRKLVU7_Ke1O7BkCkv-7" value="&lt;font style=&quot;font-size: 14px;&quot;&gt;Cadastrar livros&lt;/font&gt;" style="ellipse;whiteSpace=wrap;html=1;" vertex="1" parent="1">
          <mxGeometry x="210" y="200" width="140" height="90" as="geometry" />
        </mxCell>
        <mxCell id="rChRKLVU7_Ke1O7BkCkv-8" value="" style="endArrow=classic;html=1;rounded=0;exitX=0.5;exitY=0.5;exitDx=0;exitDy=0;exitPerimeter=0;" edge="1" parent="1" source="rChRKLVU7_Ke1O7BkCkv-1" target="rChRKLVU7_Ke1O7BkCkv-7">
          <mxGeometry width="50" height="50" relative="1" as="geometry">
            <mxPoint x="120" y="170" as="sourcePoint" />
            <mxPoint x="180" y="230" as="targetPoint" />
          </mxGeometry>
        </mxCell>
        <mxCell id="rChRKLVU7_Ke1O7BkCkv-9" value="Requisitar obras" style="ellipse;whiteSpace=wrap;html=1;" vertex="1" parent="1">
          <mxGeometry x="80" y="270" width="155" height="100" as="geometry" />
        </mxCell>
        <mxCell id="rChRKLVU7_Ke1O7BkCkv-10" value="" style="endArrow=classic;html=1;rounded=0;exitX=0.5;exitY=0.5;exitDx=0;exitDy=0;exitPerimeter=0;entryX=0.576;entryY=-0.012;entryDx=0;entryDy=0;entryPerimeter=0;" edge="1" parent="1" source="rChRKLVU7_Ke1O7BkCkv-1" target="rChRKLVU7_Ke1O7BkCkv-9">
          <mxGeometry width="50" height="50" relative="1" as="geometry">
            <mxPoint x="100" y="160" as="sourcePoint" />
            <mxPoint x="95" y="250" as="targetPoint" />
          </mxGeometry>
        </mxCell>
        <mxCell id="rChRKLVU7_Ke1O7BkCkv-11" value="&lt;div&gt;&lt;font style=&quot;font-size: 14px;&quot;&gt;CRUD&lt;/font&gt;&lt;/div&gt;&lt;div&gt;&lt;font size=&quot;3&quot;&gt;C - Create&lt;/font&gt;&lt;/div&gt;&lt;div&gt;&lt;font size=&quot;3&quot;&gt;R - Retrieve&lt;/font&gt;&lt;/div&gt;&lt;div&gt;&lt;font size=&quot;3&quot;&gt;U - Update&lt;/font&gt;&lt;/div&gt;&lt;div&gt;&lt;font size=&quot;3&quot;&gt;D - Delete&lt;br&gt;&lt;/font&gt;&lt;/div&gt;&lt;div&gt;&lt;font size=&quot;3&quot;&gt;&lt;br&gt;&lt;/font&gt;&lt;/div&gt;" style="text;strokeColor=none;align=center;fillColor=none;html=1;verticalAlign=middle;whiteSpace=wrap;rounded=0;" vertex="1" parent="1">
          <mxGeometry x="500" y="30" width="110" height="60" as="geometry" />
        </mxCell>
        <mxCell id="rChRKLVU7_Ke1O7BkCkv-12" value="&lt;font style=&quot;font-size: 18px;&quot;&gt;Stackeholder&lt;/font&gt;" style="text;strokeColor=none;align=center;fillColor=none;html=1;verticalAlign=middle;whiteSpace=wrap;rounded=0;" vertex="1" parent="1">
          <mxGeometry x="655" y="30" width="60" height="30" as="geometry" />
        </mxCell>
        <mxCell id="rChRKLVU7_Ke1O7BkCkv-13" value="autor" style="shape=umlActor;verticalLabelPosition=bottom;verticalAlign=top;html=1;outlineConnect=0;" vertex="1" parent="1">
          <mxGeometry x="50" y="460" width="60" height="110" as="geometry" />
        </mxCell>
        <mxCell id="rChRKLVU7_Ke1O7BkCkv-19" value="Enviar livro" style="ellipse;whiteSpace=wrap;html=1;" vertex="1" parent="1">
          <mxGeometry x="175" y="400" width="150" height="90" as="geometry" />
        </mxCell>
        <mxCell id="rChRKLVU7_Ke1O7BkCkv-22" value="" style="endArrow=classic;html=1;rounded=0;exitX=0.5;exitY=0.5;exitDx=0;exitDy=0;exitPerimeter=0;" edge="1" parent="1" source="rChRKLVU7_Ke1O7BkCkv-13" target="rChRKLVU7_Ke1O7BkCkv-19">
          <mxGeometry width="50" height="50" relative="1" as="geometry">
            <mxPoint x="120" y="510" as="sourcePoint" />
            <mxPoint x="170" y="460" as="targetPoint" />
          </mxGeometry>
        </mxCell>
        <mxCell id="rChRKLVU7_Ke1O7BkCkv-23" value="Participar saraus" style="ellipse;whiteSpace=wrap;html=1;" vertex="1" parent="1">
          <mxGeometry x="150" y="530" width="150" height="92.5" as="geometry" />
        </mxCell>
        <mxCell id="rChRKLVU7_Ke1O7BkCkv-24" value="" style="endArrow=classic;html=1;rounded=0;entryX=0;entryY=0.585;entryDx=0;entryDy=0;entryPerimeter=0;exitX=0.5;exitY=0.5;exitDx=0;exitDy=0;exitPerimeter=0;" edge="1" parent="1" source="rChRKLVU7_Ke1O7BkCkv-13" target="rChRKLVU7_Ke1O7BkCkv-23">
          <mxGeometry width="50" height="50" relative="1" as="geometry">
            <mxPoint x="100" y="550" as="sourcePoint" />
            <mxPoint x="150" y="500" as="targetPoint" />
          </mxGeometry>
        </mxCell>
        <mxCell id="rChRKLVU7_Ke1O7BkCkv-25" value="Editora" style="shape=umlActor;verticalLabelPosition=bottom;verticalAlign=top;html=1;outlineConnect=0;" vertex="1" parent="1">
          <mxGeometry x="740" y="490" width="50" height="90" as="geometry" />
        </mxCell>
        <mxCell id="rChRKLVU7_Ke1O7BkCkv-26" value="Consultar resenhas" style="ellipse;whiteSpace=wrap;html=1;" vertex="1" parent="1">
          <mxGeometry x="440" y="510" width="130" height="90" as="geometry" />
        </mxCell>
        <mxCell id="rChRKLVU7_Ke1O7BkCkv-27" value="Publicar obras" style="ellipse;whiteSpace=wrap;html=1;" vertex="1" parent="1">
          <mxGeometry x="510" y="640" width="130" height="90" as="geometry" />
        </mxCell>
        <mxCell id="rChRKLVU7_Ke1O7BkCkv-28" value="" style="endArrow=classic;html=1;rounded=0;exitX=0.5;exitY=0.5;exitDx=0;exitDy=0;exitPerimeter=0;entryX=0.958;entryY=0.775;entryDx=0;entryDy=0;entryPerimeter=0;" edge="1" parent="1" source="rChRKLVU7_Ke1O7BkCkv-25" target="rChRKLVU7_Ke1O7BkCkv-26">
          <mxGeometry width="50" height="50" relative="1" as="geometry">
            <mxPoint x="700" y="220" as="sourcePoint" />
            <mxPoint x="610" y="240" as="targetPoint" />
          </mxGeometry>
        </mxCell>
        <mxCell id="rChRKLVU7_Ke1O7BkCkv-29" value="" style="endArrow=classic;html=1;rounded=0;entryX=0.85;entryY=0.075;entryDx=0;entryDy=0;entryPerimeter=0;exitX=0.5;exitY=0.5;exitDx=0;exitDy=0;exitPerimeter=0;" edge="1" parent="1" source="rChRKLVU7_Ke1O7BkCkv-25" target="rChRKLVU7_Ke1O7BkCkv-27">
          <mxGeometry width="50" height="50" relative="1" as="geometry">
            <mxPoint x="740" y="350" as="sourcePoint" />
            <mxPoint x="640" y="290" as="targetPoint" />
          </mxGeometry>
        </mxCell>
        <mxCell id="rChRKLVU7_Ke1O7BkCkv-30" value="Leitor" style="shape=umlActor;verticalLabelPosition=bottom;verticalAlign=top;html=1;outlineConnect=0;" vertex="1" parent="1">
          <mxGeometry x="720" y="70" width="50" height="90" as="geometry" />
        </mxCell>
        <mxCell id="rChRKLVU7_Ke1O7BkCkv-31" value="" style="endArrow=classic;html=1;rounded=0;exitX=0.5;exitY=0.5;exitDx=0;exitDy=0;exitPerimeter=0;" edge="1" parent="1" source="rChRKLVU7_Ke1O7BkCkv-30" target="rChRKLVU7_Ke1O7BkCkv-32">
          <mxGeometry width="50" height="50" relative="1" as="geometry">
            <mxPoint x="700" y="200" as="sourcePoint" />
            <mxPoint x="640" y="220" as="targetPoint" />
          </mxGeometry>
        </mxCell>
        <mxCell id="rChRKLVU7_Ke1O7BkCkv-32" value="Avaliar resenha" style="ellipse;whiteSpace=wrap;html=1;" vertex="1" parent="1">
          <mxGeometry x="620" y="290" width="130" height="80" as="geometry" />
        </mxCell>
        <mxCell id="rChRKLVU7_Ke1O7BkCkv-34" value="" style="endArrow=classic;startArrow=classic;html=1;rounded=0;entryX=0.277;entryY=1.025;entryDx=0;entryDy=0;exitX=0.592;exitY=0.022;exitDx=0;exitDy=0;exitPerimeter=0;entryPerimeter=0;" edge="1" parent="1" source="rChRKLVU7_Ke1O7BkCkv-26" target="rChRKLVU7_Ke1O7BkCkv-32">
          <mxGeometry width="50" height="50" relative="1" as="geometry">
            <mxPoint x="530" y="340" as="sourcePoint" />
            <mxPoint x="580" y="290" as="targetPoint" />
          </mxGeometry>
        </mxCell>
        <mxCell id="rChRKLVU7_Ke1O7BkCkv-35" value="Consultar livros" style="ellipse;whiteSpace=wrap;html=1;" vertex="1" parent="1">
          <mxGeometry x="460" y="210" width="130" height="90" as="geometry" />
        </mxCell>
        <mxCell id="rChRKLVU7_Ke1O7BkCkv-36" value="" style="endArrow=classic;html=1;rounded=0;exitX=0.5;exitY=0.5;exitDx=0;exitDy=0;exitPerimeter=0;entryX=0.985;entryY=0.278;entryDx=0;entryDy=0;entryPerimeter=0;" edge="1" parent="1" source="rChRKLVU7_Ke1O7BkCkv-30" target="rChRKLVU7_Ke1O7BkCkv-35">
          <mxGeometry width="50" height="50" relative="1" as="geometry">
            <mxPoint x="710" y="270" as="sourcePoint" />
            <mxPoint x="680" y="230" as="targetPoint" />
          </mxGeometry>
        </mxCell>
        <mxCell id="rChRKLVU7_Ke1O7BkCkv-41" value="" style="edgeStyle=none;orthogonalLoop=1;jettySize=auto;html=1;rounded=0;entryX=0;entryY=1;entryDx=0;entryDy=0;" edge="1" parent="1" source="rChRKLVU7_Ke1O7BkCkv-13" target="rChRKLVU7_Ke1O7BkCkv-9">
          <mxGeometry width="80" relative="1" as="geometry">
            <mxPoint x="30" y="420" as="sourcePoint" />
            <mxPoint x="110" y="420" as="targetPoint" />
            <Array as="points" />
          </mxGeometry>
        </mxCell>
        <mxCell id="rChRKLVU7_Ke1O7BkCkv-42" value="" style="edgeStyle=none;orthogonalLoop=1;jettySize=auto;html=1;rounded=0;entryX=1;entryY=0.6;entryDx=0;entryDy=0;entryPerimeter=0;exitX=0.5;exitY=0.5;exitDx=0;exitDy=0;exitPerimeter=0;" edge="1" parent="1" source="rChRKLVU7_Ke1O7BkCkv-30" target="rChRKLVU7_Ke1O7BkCkv-4">
          <mxGeometry width="80" relative="1" as="geometry">
            <mxPoint x="490" y="210" as="sourcePoint" />
            <mxPoint x="570" y="210" as="targetPoint" />
            <Array as="points" />
          </mxGeometry>
        </mxCell>
        <mxCell id="rChRKLVU7_Ke1O7BkCkv-43" value="" style="edgeStyle=none;orthogonalLoop=1;jettySize=auto;html=1;rounded=0;entryX=1;entryY=0.5;entryDx=0;entryDy=0;exitX=0.008;exitY=0.3;exitDx=0;exitDy=0;exitPerimeter=0;" edge="1" parent="1" source="rChRKLVU7_Ke1O7BkCkv-35" target="rChRKLVU7_Ke1O7BkCkv-7">
          <mxGeometry width="80" relative="1" as="geometry">
            <mxPoint x="330" y="280" as="sourcePoint" />
            <mxPoint x="410" y="280" as="targetPoint" />
            <Array as="points" />
          </mxGeometry>
        </mxCell>
        <mxCell id="rChRKLVU7_Ke1O7BkCkv-44" value="" style="edgeStyle=none;orthogonalLoop=1;jettySize=auto;html=1;rounded=0;entryX=1;entryY=0.5;entryDx=0;entryDy=0;exitX=0;exitY=0.5;exitDx=0;exitDy=0;" edge="1" parent="1" source="rChRKLVU7_Ke1O7BkCkv-35" target="rChRKLVU7_Ke1O7BkCkv-9">
          <mxGeometry width="80" relative="1" as="geometry">
            <mxPoint x="150" y="230" as="sourcePoint" />
            <mxPoint x="230" y="230" as="targetPoint" />
            <Array as="points" />
          </mxGeometry>
        </mxCell>
      </root>
    </mxGraphModel>
  </diagram>
</mxfile>
